<?xml version="1.0" encoding="UTF-8" standalone="no"?>
<!-- Created with Inkscape (http://www.inkscape.org/) -->

<svg
   xmlns:dc="http://purl.org/dc/elements/1.1/"
   xmlns:cc="http://creativecommons.org/ns#"
   xmlns:rdf="http://www.w3.org/1999/02/22-rdf-syntax-ns#"
   xmlns:svg="http://www.w3.org/2000/svg"
   xmlns="http://www.w3.org/2000/svg"
   xmlns:sodipodi="http://sodipodi.sourceforge.net/DTD/sodipodi-0.dtd"
   xmlns:inkscape="http://www.inkscape.org/namespaces/inkscape"
   id="svg2"
   version="1.1"
   inkscape:version="0.91 r13725"
   width="723.75"
   height="723.75"
   viewBox="0 0 723.75 723.75"
   sodipodi:docname="logo-cathedrale-volcan-blanc.svg">
  <metadata
     id="metadata8">
    <rdf:RDF>
      <cc:Work
         rdf:about="">
        <dc:format>image/svg+xml</dc:format>
        <dc:type
           rdf:resource="http://purl.org/dc/dcmitype/StillImage" />
        <dc:title />
      </cc:Work>
    </rdf:RDF>
  </metadata>
  <defs
     id="defs6" />
  <sodipodi:namedview
     pagecolor="#000000"
     bordercolor="#666666"
     borderopacity="1"
     objecttolerance="10"
     gridtolerance="10"
     guidetolerance="10"
     inkscape:pageopacity="0"
     inkscape:pageshadow="2"
     inkscape:window-width="1920"
     inkscape:window-height="1085"
     id="namedview4"
     showgrid="false"
     inkscape:zoom="0.46114598"
     inkscape:cx="-342.11565"
     inkscape:cy="455.22933"
     inkscape:window-x="0"
     inkscape:window-y="38"
     inkscape:window-maximized="1"
     inkscape:current-layer="svg2" />
  <path
     style="fill:#ffffff;fill-opacity:1;stroke:none;stroke-width:37.79527664;stroke-miterlimit:4;stroke-dasharray:none"
     d="M 361.875 0 A 359.70651 359.70651 0 0 0 2.1679688 359.70703 A 359.70651 359.70651 0 0 0 361.875 719.41211 A 359.70651 359.70651 0 0 0 721.58203 359.70703 A 359.70651 359.70651 0 0 0 361.875 0 z M 361.875 15.333984 A 344.37283 344.37283 0 0 1 706.24805 359.70703 A 344.37283 344.37283 0 0 1 361.875 704.08008 A 344.37283 344.37283 0 0 1 17.501953 359.70703 A 344.37283 344.37283 0 0 1 361.875 15.333984 z "
     id="path4140" />
  <path
     style="fill:#ffffff;fill-opacity:1;fill-rule:evenodd;stroke:none;stroke-width:2;stroke-linecap:butt;stroke-linejoin:miter;stroke-miterlimit:4;stroke-dasharray:none;stroke-opacity:1"
     d="m 554.46109,101.18412 25.0734,0 7.65756,203.70448 -27.17415,0 C 511.89751,88.604906 224.74053,34.450592 203.98512,350.79789 185.88234,626.71465 501.41836,686.32844 572.69013,441.57254 l 30.69798,0 c -43.87543,283.7891 -500.7594,238.9 -500.7594,-94.28006 0,-216.21998 233.82628,-330.381671 421.78337,-198.60364 z"
     id="path4142"
     inkscape:connector-curvature="0"
     sodipodi:nodetypes="ccccsccscc" />
  <g
     transform="matrix(0.07085247,0,0,0.07085247,348.56139,180.15184)"
     id="layer1"
     inkscape:label="Layer 1"
     style="fill:#ffffff">
    <path
       inkscape:connector-curvature="0"
       id="path4142-6"
       d="m 168.49858,75.362574 c 0,-1.371598 0.004,-1.928098 0.009,-1.236667 0.005,0.691431 0.005,1.813647 -1e-5,2.493814 -0.005,0.680167 -0.009,0.114451 -0.009,-1.257147 z"
       style="fill:#ffffff;fill-opacity:1" />
    <path
       inkscape:connector-curvature="0"
       id="path4144"
       d="m 171.54558,995.13994 0,-56.52202 71.89568,0 71.896,0 0,-100.83513 0,-100.83521 -100.83514,0 -100.83514,0 0,71.44383 0,71.44375 -56.974159,0 -56.97394708,0 0,-199.86167 0,-199.86165 56.97394708,0 56.974159,0 0,71.44379 0,71.44375 100.83914,0 100.83922,0 -0.22881,-100.60909 -0.2288,-100.60909 -71.66991,-0.23209 -71.66967,-0.23208 0,-56.51652 0,-56.51649 200.31375,0 200.31384,0 0,56.52194 0,56.52196 -71.4439,0 -71.44366,0 0,100.83517 0,100.83518 100.38279,0 100.38313,0 0,-71.44374 0,-71.44378 56.97419,0 56.97417,0 0,199.86163 0,199.86167 -56.97417,0 -56.97419,0 0,-71.44375 0,-71.44374 -100.38313,0 -100.38279,0 0,100.83513 0,100.83521 71.44366,0 71.4439,0 0,56.52193 0,56.52197 -200.31384,0 -200.31375,0 0,-56.52197 z"
       style="fill:#ffffff;fill-opacity:1" />
  </g>
  <g
     transform="matrix(0.07085247,0,0,0.07085247,435.27448,186.0694)"
     id="layer1-7"
     inkscape:label="Layer 1"
     style="fill:#ffffff">
    <path
       inkscape:connector-curvature="0"
       id="path4142-6-5"
       d="m 168.49858,75.362574 c 0,-1.371598 0.004,-1.928098 0.009,-1.236667 0.005,0.691431 0.005,1.813647 -1e-5,2.493814 -0.005,0.680167 -0.009,0.114451 -0.009,-1.257147 z"
       style="fill:#ffffff;fill-opacity:1" />
    <path
       inkscape:connector-curvature="0"
       id="path4144-3"
       d="m 171.54558,995.13994 0,-56.52202 71.89568,0 71.896,0 0,-100.83513 0,-100.83521 -100.83514,0 -100.83514,0 0,71.44383 0,71.44375 -56.974159,0 -56.97394708,0 0,-199.86167 0,-199.86165 56.97394708,0 56.974159,0 0,71.44379 0,71.44375 100.83914,0 100.83922,0 -0.22881,-100.60909 -0.2288,-100.60909 -71.66991,-0.23209 -71.66967,-0.23208 0,-56.51652 0,-56.51649 200.31375,0 200.31384,0 0,56.52194 0,56.52196 -71.4439,0 -71.44366,0 0,100.83517 0,100.83518 100.38279,0 100.38313,0 0,-71.44374 0,-71.44378 56.97419,0 56.97417,0 0,199.86163 0,199.86167 -56.97417,0 -56.97419,0 0,-71.44375 0,-71.44374 -100.38313,0 -100.38279,0 0,100.83513 0,100.83521 71.44366,0 71.4439,0 0,56.52193 0,56.52197 -200.31384,0 -200.31375,0 0,-56.52197 z"
       style="fill:#ffffff;fill-opacity:1" />
  </g>
  <g
     transform="matrix(0.07085247,0,0,0.07085247,389.19362,127.51961)"
     id="layer1-5"
     inkscape:label="Layer 1"
     style="fill:#ffffff">
    <path
       inkscape:connector-curvature="0"
       id="path4142-6-6"
       d="m 168.49858,75.362574 c 0,-1.371598 0.004,-1.928098 0.009,-1.236667 0.005,0.691431 0.005,1.813647 -1e-5,2.493814 -0.005,0.680167 -0.009,0.114451 -0.009,-1.257147 z"
       style="fill:#ffffff;fill-opacity:1" />
    <path
       inkscape:connector-curvature="0"
       id="path4144-2"
       d="m 171.54558,995.13994 0,-56.52202 71.89568,0 71.896,0 0,-100.83513 0,-100.83521 -100.83514,0 -100.83514,0 0,71.44383 0,71.44375 -56.974159,0 -56.97394708,0 0,-199.86167 0,-199.86165 56.97394708,0 56.974159,0 0,71.44379 0,71.44375 100.83914,0 100.83922,0 -0.22881,-100.60909 -0.2288,-100.60909 -71.66991,-0.23209 -71.66967,-0.23208 0,-56.51652 0,-56.51649 200.31375,0 200.31384,0 0,56.52194 0,56.52196 -71.4439,0 -71.44366,0 0,100.83517 0,100.83518 100.38279,0 100.38313,0 0,-71.44374 0,-71.44378 56.97419,0 56.97417,0 0,199.86163 0,199.86167 -56.97417,0 -56.97419,0 0,-71.44375 0,-71.44374 -100.38313,0 -100.38279,0 0,100.83513 0,100.83521 71.44366,0 71.4439,0 0,56.52193 0,56.52197 -200.31384,0 -200.31375,0 0,-56.52197 z"
       style="fill:#ffffff;fill-opacity:1" />
  </g>
  <g
     transform="matrix(0.07085247,0,0,0.07085247,295.81213,136.60025)"
     id="layer1-9"
     inkscape:label="Layer 1"
     style="fill:#ffffff">
    <path
       inkscape:connector-curvature="0"
       id="path4142-6-1"
       d="m 168.49858,75.362574 c 0,-1.371598 0.004,-1.928098 0.009,-1.236667 0.005,0.691431 0.005,1.813647 -1e-5,2.493814 -0.005,0.680167 -0.009,0.114451 -0.009,-1.257147 z"
       style="fill:#ffffff;fill-opacity:1" />
    <path
       inkscape:connector-curvature="0"
       id="path4144-27"
       d="m 171.54558,995.13994 0,-56.52202 71.89568,0 71.896,0 0,-100.83513 0,-100.83521 -100.83514,0 -100.83514,0 0,71.44383 0,71.44375 -56.974159,0 -56.97394708,0 0,-199.86167 0,-199.86165 56.97394708,0 56.974159,0 0,71.44379 0,71.44375 100.83914,0 100.83922,0 -0.22881,-100.60909 -0.2288,-100.60909 -71.66991,-0.23209 -71.66967,-0.23208 0,-56.51652 0,-56.51649 200.31375,0 200.31384,0 0,56.52194 0,56.52196 -71.4439,0 -71.44366,0 0,100.83517 0,100.83518 100.38279,0 100.38313,0 0,-71.44374 0,-71.44378 56.97419,0 56.97417,0 0,199.86163 0,199.86167 -56.97417,0 -56.97419,0 0,-71.44375 0,-71.44374 -100.38313,0 -100.38279,0 0,100.83513 0,100.83521 71.44366,0 71.4439,0 0,56.52193 0,56.52197 -200.31384,0 -200.31375,0 0,-56.52197 z"
       style="fill:#ffffff;fill-opacity:1" />
  </g>
  <g
     transform="matrix(0.07085247,0,0,0.07085247,241.59936,194.33685)"
     id="layer1-0"
     inkscape:label="Layer 1"
     style="fill:#ffffff">
    <path
       inkscape:connector-curvature="0"
       id="path4142-6-9"
       d="m 168.49858,75.362574 c 0,-1.371598 0.004,-1.928098 0.009,-1.236667 0.005,0.691431 0.005,1.813647 -1e-5,2.493814 -0.005,0.680167 -0.009,0.114451 -0.009,-1.257147 z"
       style="fill:#ffffff;fill-opacity:1" />
    <path
       inkscape:connector-curvature="0"
       id="path4144-36"
       d="m 171.54558,995.13994 0,-56.52202 71.89568,0 71.896,0 0,-100.83513 0,-100.83521 -100.83514,0 -100.83514,0 0,71.44383 0,71.44375 -56.974159,0 -56.97394708,0 0,-199.86167 0,-199.86165 56.97394708,0 56.974159,0 0,71.44379 0,71.44375 100.83914,0 100.83922,0 -0.22881,-100.60909 -0.2288,-100.60909 -71.66991,-0.23209 -71.66967,-0.23208 0,-56.51652 0,-56.51649 200.31375,0 200.31384,0 0,56.52194 0,56.52196 -71.4439,0 -71.44366,0 0,100.83517 0,100.83518 100.38279,0 100.38313,0 0,-71.44374 0,-71.44378 56.97419,0 56.97417,0 0,199.86163 0,199.86167 -56.97417,0 -56.97419,0 0,-71.44375 0,-71.44374 -100.38313,0 -100.38279,0 0,100.83513 0,100.83521 71.44366,0 71.4439,0 0,56.52193 0,56.52197 -200.31384,0 -200.31375,0 0,-56.52197 z"
       style="fill:#ffffff;fill-opacity:1" />
  </g>
  <path
     style="fill:#ffffff;fill-rule:evenodd;stroke:none;stroke-width:1px;stroke-linecap:butt;stroke-linejoin:miter;stroke-opacity:1"
     d="m 308.06406,255.18227 c 5.73566,1.7603 11.64003,3.42289 18.83097,4.34037 l -1.05419,25.39642 -18.20875,16.77122 -6.32515,37.28002 -13.22531,14.08783 -6.03763,22.32968 29.80485,-32.87159 0.19167,-15.52536 6.70849,4.50427 16.10037,38.23838 -14.2795,34.59663 -8.43352,28.65483 14.8545,-12.26695 12.55446,29.70902 -0.0958,-20.2213 -6.61265,-30.1882 15.42952,-30.7632 -8.43352,-30.95488 -11.5961,-8.43353 -5.84597,-12.36279 11.88361,-13.89615 -0.0958,-10.35024 19.35878,16.29204 5.9418,-4.50427 6.22931,5.84597 -3.06673,26.73812 9.48771,-14.95035 1.24587,-23.4797 -32.29658,-18.87961 -4.69594,-8.62519 -0.95836,-11.50027 c 34.71041,1.49815 69.31462,1.88122 103.31071,-4.12093 6.24204,102.90292 59.53755,158.73498 127.86223,182.22987 -75.22015,220.16444 -308.62082,176.21778 -350.5386,-7.20696 57.47658,-42.90023 81.86126,-105.02058 92.00525,-175.9132 z"
     id="path5659"
     inkscape:connector-curvature="0"
     sodipodi:nodetypes="cccccccccccccccccccccccccccccccccccc" />
  <g
     style="font-style:normal;font-weight:normal;font-size:70px;line-height:100%;font-family:sans-serif;letter-spacing:0px;word-spacing:0px;fill:#ffffff;fill-opacity:1;stroke:none;stroke-width:1px;stroke-linecap:butt;stroke-linejoin:miter;stroke-opacity:1"
     id="text5684">
    <path
       d="m 60.939664,291.63224 c -0.914274,3.57291 -2.610638,5.03242 -5.225164,4.4104 -3.830585,-0.91134 -6.309749,-5.6128 -5.268225,-9.99061 1.475493,-6.2019 8.582845,-9.07234 17.277663,-7.00376 9.850075,2.34343 15.46206,7.91871 14.029964,13.9382 -0.795609,3.34416 -3.18656,6.37302 -6.48391,8.35106 -1.731177,1.06575 -3.497165,1.73776 -7.07842,2.74884 l 0.478548,4.73945 14.806273,-0.39636 0.9258,-3.89138 -1.546301,-1.33155 c 2.052361,-2.14574 4.231735,-6.44558 5.07074,-9.97215 2.864193,-12.03898 -4.048651,-22.67784 -16.634857,-25.67222 -6.566716,-1.56229 -13.468845,-0.63459 -18.132555,2.496 -3.882092,2.54561 -6.788161,6.92954 -7.974341,11.91538 -0.665419,2.79693 -0.824067,6.16414 -0.415379,8.76691 0.176764,0.87723 0.446203,1.905 1.205243,4.65536 l -3.859279,0.55946 -1.576752,6.62752 11.613359,2.76293 c 3.891387,0.9258 4.583506,1.79715 4.196112,5.0457 l -0.109844,1.00177 4.98584,1.18619 4.701325,-19.76096 -4.98584,-1.18618 z"
       style="font-style:normal;font-variant:normal;font-weight:bold;font-stretch:normal;font-size:62.5px;line-height:100%;font-family:'URW Bookman L';-inkscape-font-specification:'URW Bookman L Bold';fill:#ffffff"
       id="path4155" />
    <path
       d="m 69.307582,332.27568 0.365449,-3.85773 -0.884904,-9.87748 -5.039936,-0.47744 -0.230541,1.1082 c -0.570458,2.70827 -1.630839,3.29839 -5.426346,2.93884 l -8.959887,-0.84879 c -3.546622,-0.33597 -4.13347,-0.76825 -4.469478,-3.18571 l -0.264614,-1.84568 -5.039936,-0.47744 -1.815457,19.1642 5.039936,0.47744 0.606486,-1.76316 c 0.783978,-2.31137 1.441558,-2.62575 4.98818,-2.28977 l 12.070958,1.1435 c 0.664137,0.94183 0.854079,1.58762 0.759769,2.58316 -0.07073,0.74666 -0.07073,0.74666 -1.139623,2.08934 -0.852755,1.04925 -1.184162,1.89678 -1.296154,3.07898 -0.265245,2.79997 1.525433,5.10412 4.263176,5.36347 3.235514,0.3065 5.954251,-1.88436 6.254862,-5.05765 0.241668,-2.55108 -0.295409,-4.17146 -2.83079,-8.5551 l 3.04885,0.28882 z"
       style="font-style:normal;font-variant:normal;font-weight:bold;font-stretch:normal;font-size:62.5px;line-height:100%;font-family:'URW Bookman L';-inkscape-font-specification:'URW Bookman L Bold';fill:#ffffff"
       id="path4157" />
    <path
       d="m 68.688117,366.71495 c -0.252652,-10.12185 -6.79722,-16.83563 -16.231781,-16.60013 -10.246809,0.25577 -16.51543,7.10182 -16.250301,17.72351 0.262009,10.49673 6.742537,17.1496 16.489501,16.9063 10.059367,-0.25109 16.260828,-7.28303 15.992581,-18.02968 z m -6.363658,0.53396 c 0.09825,3.93628 -3.289829,5.95895 -10.162688,6.1305 -6.373015,0.15908 -9.79843,-1.81856 -9.893565,-5.62987 -0.09825,-3.93628 3.22423,-6.08235 9.722206,-6.24455 6.747898,-0.16843 10.234234,1.74517 10.334047,5.74392 z"
       style="font-style:normal;font-variant:normal;font-weight:bold;font-stretch:normal;font-size:62.5px;line-height:100%;font-family:'URW Bookman L';-inkscape-font-specification:'URW Bookman L Bold';fill:#ffffff"
       id="path4159" />
    <path
       d="m 74.739637,424.25076 -0.645535,-3.82086 -3.588421,-10.35946 -4.991759,0.84336 0.06416,1.1301 c 0.149988,2.76363 -0.721508,3.60811 -4.480733,4.24324 l -10.47653,1.77001 c -2.214903,-2.60492 -3.143525,-4.3496 -3.476704,-6.32165 -0.416473,-2.46507 0.342181,-3.2271 3.916527,-3.83099 l 20.336793,-3.43591 -0.645534,-3.82085 -3.588422,-10.35947 -4.991758,0.84336 0.06416,1.13011 c 0.149988,2.76363 -0.721508,3.60811 -4.480734,4.24323 l -8.566104,1.44725 c -4.930131,0.83295 -6.910907,1.86484 -8.456919,4.34454 -1.177096,2.03706 -1.561768,4.63748 -1.062,7.59556 0.67677,4.00573 1.925625,6.52032 5.026658,10.24325 l -2.403439,0.40606 2.290605,13.55786 4.991759,-0.84336 0.108619,-1.98331 c 0.15899,-2.43552 0.712785,-2.9094 4.225504,-3.50287 l 20.829807,-3.5192 z"
       style="font-style:normal;font-variant:normal;font-weight:bold;font-stretch:normal;font-size:62.5px;line-height:100%;font-family:'URW Bookman L';-inkscape-font-specification:'URW Bookman L Bold';fill:#ffffff"
       id="path4161" />
    <path
       d="m 80.792859,445.72044 -1.196276,-3.68572 -4.73395,-8.71421 -4.815218,1.56288 0.228411,1.10864 c 0.551734,2.71214 -0.187177,3.67478 -3.813453,4.85176 l -21.222627,6.88823 c -3.388487,1.0998 -4.098727,0.93607 -5.366952,-1.14927 l -0.975678,-1.5889 -4.815218,1.56287 5.942788,18.30972 4.815218,-1.56288 -0.143418,-1.85903 c -0.198177,-2.43264 0.280525,-2.98227 3.669012,-4.08207 l 4.042405,-1.31205 -0.02555,0.7311 c -0.203347,3.22006 -0.01821,4.80272 0.676399,6.94281 2.604793,8.02537 11.291949,11.71103 20.446808,8.73963 8.441493,-2.73985 12.974022,-11.04478 10.407818,-18.95125 -0.829675,-2.55622 -1.845506,-4.06639 -4.84449,-7.23271 l 1.723967,-0.55955 z m -7.34067,3.49962 c 1.910664,0.82547 3.51784,2.53796 4.115978,4.38082 1.157686,3.56683 -1.635789,6.90476 -7.164373,8.69918 -6.360843,2.06454 -10.799061,0.94237 -12.111106,-3.10003 -0.501664,-1.54563 -0.326989,-3.63932 0.357165,-5.17557 l 14.802336,-4.8044 z"
       style="font-style:normal;font-variant:normal;font-weight:bold;font-stretch:normal;font-size:62.5px;line-height:100%;font-family:'URW Bookman L';-inkscape-font-specification:'URW Bookman L Bold';fill:#ffffff"
       id="path4163" />
    <path
       d="m 90.081996,508.31317 c 3.993145,-1.93551 6.108222,-3.44689 7.502479,-5.44234 2.817495,-4.0744 2.971525,-9.77491 0.354496,-15.1741 -4.198146,-8.66118 -13.1874,-11.87461 -21.679865,-7.75825 -8.548706,4.14363 -11.627551,13.55383 -7.320362,22.43999 2.071813,4.27435 5.47132,7.41897 9.370382,8.58509 1.642783,0.52337 2.869775,0.7621 5.857193,1.05045 l 0.016,-5.84198 c -4.325173,-0.6123 -6.961381,-2.18216 -8.351676,-5.05047 -2.126334,-4.38684 -0.12004,-8.41532 5.418887,-11.03063 l 8.832463,18.22224 z m -4.338305,-19.98386 c 3.175064,-1.33062 5.767072,-0.7117 6.993803,1.81917 1.226731,2.53086 0.338647,4.28097 -3.150046,6.11088 l -3.843757,-7.93005 z"
       style="font-style:normal;font-variant:normal;font-weight:bold;font-stretch:normal;font-size:62.5px;line-height:100%;font-family:'URW Bookman L';-inkscape-font-specification:'URW Bookman L Bold';fill:#ffffff"
       id="path4165" />
    <path
       d="m 142.90575,541.7559 c -0.21819,-3.00833 -1.72833,-6.75008 -3.96845,-9.60008 -5.79343,-7.37067 -14.43624,-9.16287 -20.67674,-4.25777 -3.09569,2.43324 -4.71683,5.93336 -4.3862,9.48928 0.27077,2.56953 0.69926,3.82264 3.83176,10.74097 l 2.59522,5.83021 c 1.96309,4.41917 2.03711,6.03041 0.21901,7.45946 -2.55517,2.00838 -6.38166,0.88226 -9.23975,-2.75393 -2.7036,-3.43965 -3.88393,-8.07661 -3.2599,-12.54189 0.43131,-2.4854 0.92593,-4.38459 2.23121,-7.47745 l -4.12516,-2.71977 -9.324447,13.92727 2.278749,2.89913 2.948468,-1.20459 c 0.0989,3.2611 1.78111,7.42406 4.40747,10.76544 6.29552,8.00946 15.94232,9.96647 22.72334,4.63651 3.04655,-2.39461 4.70631,-5.84559 4.40379,-9.26462 -0.17593,-2.24659 -0.80461,-4.05781 -2.91876,-9.07372 l -2.33537,-5.39849 c -0.0667,-0.18603 -0.5654,-1.225 -1.35201,-2.8326 -1.66806,-3.53813 -1.77726,-5.59868 -0.20485,-6.83461 2.01465,-1.58354 5.2163,-0.44326 7.68816,2.70156 2.2015,2.80085 3.2694,6.89021 2.72242,10.34099 -0.2279,1.53055 -0.512,2.78731 -1.43814,6.05912 l 4.10757,2.49511 7.42587,-11.08353 -2.31737,-2.94827 -2.03589,0.64627 z"
       style="font-style:normal;font-variant:normal;font-weight:bold;font-stretch:normal;font-size:62.5px;line-height:100%;font-family:'URW Bookman L';-inkscape-font-specification:'URW Bookman L Bold';fill:#ffffff"
       id="path4167" />
    <path
       d="m 152.42646,593.3517 c -4.43872,1.36532 -7.98527,0.81318 -10.59626,-1.70144 -3.24125,-3.1216 -2.40888,-8.22048 2.10009,-12.90227 4.3789,-4.54674 8.46913,-5.64029 11.21518,-2.99561 1.35051,1.30067 1.74223,3.32659 0.83176,4.27195 l -1.30233,1.26215 c -1.51744,1.5756 -1.14748,4.79539 0.78826,6.65968 2.11581,2.0377 5.25387,2.0229 7.29158,-0.0929 3.55515,-3.69141 1.96157,-10.86637 -3.62057,-16.24245 -7.47286,-7.19702 -16.80033,-7.24264 -23.60715,-0.17493 -6.67674,6.93265 -6.36555,16.43023 0.74718,23.2804 5.35705,5.1593 12.01491,6.62538 17.97773,4.03795 l -1.82547,-5.40252 z"
       style="font-style:normal;font-variant:normal;font-weight:bold;font-stretch:normal;font-size:62.5px;line-height:100%;font-family:'URW Bookman L';-inkscape-font-specification:'URW Bookman L Bold';fill:#ffffff"
       id="path4169" />
    <path
       d="m 188.21019,596.0487 c -8.16309,-5.98995 -17.47738,-4.91747 -23.06061,2.69134 -6.0639,8.26387 -4.48065,17.41031 4.08556,23.69606 8.46544,6.2118 17.69236,5.15274 23.46046,-2.70802 5.95298,-8.11271 4.18158,-17.31968 -4.48541,-23.67938 z m -3.46911,5.36158 c 3.17454,2.32942 2.70299,6.24707 -1.36426,11.78991 -3.77145,5.13973 -7.43095,6.64058 -10.50471,4.38511 -3.17454,-2.32943 -2.84074,-6.27063 1.00466,-11.51114 3.9933,-5.44206 7.63938,-7.03028 10.86431,-4.66388 z"
       style="font-style:normal;font-variant:normal;font-weight:bold;font-stretch:normal;font-size:62.5px;line-height:100%;font-family:'URW Bookman L';-inkscape-font-specification:'URW Bookman L Bold';fill:#ffffff"
       id="path4171" />
    <path
       d="m 237.46028,626.42151 -3.41918,-1.82341 -10.39351,-3.4886 -2.38219,4.467 0.93384,0.63967 c 2.27947,1.56977 2.41554,2.77565 0.62154,6.13969 l -4.99966,9.37517 c -3.41544,0.16189 -5.36398,-0.16892 -7.12872,-1.11004 -2.20592,-1.17639 -2.34567,-2.24256 -0.6399,-5.44115 l 9.70524,-18.19888 -3.41919,-1.8234 -10.3935,-3.4886 -2.3822,4.46699 0.93385,0.63968 c 2.27947,1.56977 2.41554,2.77564 0.62154,6.13968 l -4.08796,7.66559 c -2.35278,4.41184 -2.74609,6.61039 -1.72761,9.34932 0.89346,2.17644 2.71706,4.06976 5.36417,5.48143 3.58462,1.91164 6.33832,2.45933 11.18023,2.27901 l -1.14699,2.15078 12.13259,6.47015 2.38219,-4.46699 -1.50372,-1.29774 c -1.83094,-1.61391 -1.86773,-2.34185 -0.19137,-5.48529 l 9.94051,-18.64006 z"
       style="font-style:normal;font-variant:normal;font-weight:bold;font-stretch:normal;font-size:62.5px;line-height:100%;font-family:'URW Bookman L';-inkscape-font-specification:'URW Bookman L Bold';fill:#ffffff"
       id="path4173" />
    <path
       d="m 265.17015,643.05974 1.89048,-4.96475 -8.00202,-3.047 3.5363,-9.28701 -5.49043,-2.09064 c -2.8749,5.79371 -6.84336,7.96087 -12.19182,6.72682 l -1.75703,4.6143 4.43907,1.69031 -5.62694,14.77744 c -1.35669,3.56294 -1.65684,5.05371 -1.48971,6.72242 0.4176,2.76724 2.30914,4.82505 5.69685,6.11502 5.2568,2.00168 9.60378,1.65059 14.54835,-1.14806 l -1.92542,-5.48148 c -3.52635,1.53298 -4.96142,1.78907 -6.42164,1.23305 -1.57704,-0.6005 -1.74686,-1.73521 -0.59034,-4.77247 l 5.38229,-14.13495 8.00201,3.047 z"
       style="font-style:normal;font-variant:normal;font-weight:bold;font-stretch:normal;font-size:62.5px;line-height:100%;font-family:'URW Bookman L';-inkscape-font-specification:'URW Bookman L Bold';fill:#ffffff"
       id="path4175" />
    <path
       d="m 331.37728,668.83533 c -2.25544,2.75264 -3.82732,4.34544 -5.58006,5.46792 -2.89265,1.95948 -6.64125,2.90259 -9.73019,2.42928 -2.47116,-0.37866 -4.91441,-1.76471 -6.62628,-3.79744 -2.77706,-3.33408 -3.69227,-8.09007 -2.74563,-14.26796 1.57141,-10.25531 6.75688,-16.03661 13.429,-15.01424 3.02717,0.46385 5.70359,2.39146 8.1005,5.73052 1.23657,1.83345 1.90269,3.26333 3.94436,8.50808 l 5.03151,-1.06269 -2.95538,-15.375 -4.26275,-0.65318 -0.71195,1.34519 c -2.74767,-1.8753 -6.33134,-3.24641 -9.9763,-3.80492 -5.06587,-0.77624 -9.72222,-0.0987 -13.65067,2.01823 -5.66225,3.11584 -9.69285,9.20055 -10.81935,16.55225 -1.95006,12.72646 5.91576,23.2897 18.82756,25.26816 9.32862,1.42942 18.21684,-2.51992 22.39392,-9.97324 l -4.66829,-3.37096 z"
       style="font-style:normal;font-variant:normal;font-weight:bold;font-stretch:normal;font-size:62.5px;line-height:100%;font-family:'URW Bookman L';-inkscape-font-specification:'URW Bookman L Bold';fill:#ffffff"
       id="path4177" />
    <path
       d="m 375.27655,678.11262 c -0.12566,0.12433 -0.25133,0.24866 -0.43949,0.37266 -0.50266,0.49733 -0.81616,0.68316 -1.12865,0.68149 -0.4375,-0.002 -0.93582,-0.31749 -1.05882,-0.69316 -0.18516,-0.43849 -0.18516,-0.43849 -0.235,-2.81379 l 0.0657,-12.31232 c 0.0177,-3.31246 -0.65915,-5.3161 -2.33796,-6.95007 -2.17614,-2.13664 -6.35691,-3.40896 -11.23184,-3.43496 -8.06239,-0.043 -13.89414,3.55095 -13.92081,8.55088 -0.014,2.62496 1.97498,4.6981 4.59994,4.7121 1.49998,0.008 3.06579,-0.60866 3.94644,-1.66648 0.62899,-0.74665 0.88366,-1.62031 0.89166,-3.12029 0.005,-0.87498 0.1945,-1.31148 0.57116,-1.62197 0.75365,-0.68349 2.13097,-1.11365 3.44345,-1.10665 2.68746,0.0143 3.93144,1.14598 3.91944,3.39595 l -0.017,3.18746 c -3.43912,0.29416 -6.44208,0.84065 -9.13387,1.6388 -6.25991,1.84164 -9.40254,5.13743 -9.42787,9.88736 -0.0273,5.12493 3.95427,8.58371 9.89169,8.61538 3.49995,0.0187 6.81807,-1.02615 9.95436,-3.13445 1.48964,1.94547 4.29544,3.21045 7.1704,3.22579 2.81246,0.015 5.12992,-0.91016 7.95438,-3.14512 l -3.47728,-4.26861 z m -12.99181,-1.56932 c -1.63298,1.49132 -3.19912,2.17047 -4.9491,2.16114 -1.74997,-0.009 -2.93079,-1.26565 -2.92079,-3.14062 0.014,-2.62497 2.46047,-4.29944 7.90322,-5.27043 l -0.0333,6.24991 z"
       style="font-style:normal;font-variant:normal;font-weight:bold;font-stretch:normal;font-size:62.5px;line-height:100%;font-family:'URW Bookman L';-inkscape-font-specification:'URW Bookman L Bold';fill:#ffffff"
       id="path4179" />
    <path
       d="m 405.36562,655.89015 -0.58276,-5.28044 -8.51083,0.93928 -1.09011,-9.87753 -5.83954,0.64447 c 0.0849,6.46721 -2.45775,10.2062 -7.78016,11.54814 l 0.54162,4.90771 4.72134,-0.52106 1.73458,15.71707 c 0.41821,3.78949 0.83125,5.25302 1.74127,6.66169 1.63409,2.27196 4.25612,3.24018 7.85924,2.84252 5.59106,-0.61704 9.29911,-2.91265 12.42231,-7.6589 l -4.21414,-3.99936 c -2.4386,2.97295 -3.59878,3.85554 -5.15185,4.02694 -1.67732,0.18512 -2.34612,-0.74714 -2.70263,-3.97753 l -1.65917,-15.03372 8.51083,-0.93928 z"
       style="font-style:normal;font-variant:normal;font-weight:bold;font-stretch:normal;font-size:62.5px;line-height:100%;font-family:'URW Bookman L';-inkscape-font-specification:'URW Bookman L Bold';fill:#ffffff"
       id="path4181" />
    <path
       d="m 428.73,654.78205 c 1.14834,-1.6291 3.98083,-3.47377 5.92447,-3.94522 1.70068,-0.41252 2.84568,0.59599 3.46446,3.14702 l 2.60771,10.75076 c 0.85451,3.52284 0.77723,3.73452 -1.52334,5.38586 l -0.71594,0.49522 1.19336,4.91984 18.16088,-4.40512 -1.19336,-4.91983 -2.28972,0.10521 c -2.35047,0.11994 -2.96716,-0.56653 -3.7922,-3.9679 l -2.79924,-11.54036 c -0.82504,-3.40137 -1.94988,-5.12221 -4.2453,-6.36618 -2.15921,-1.21269 -4.80976,-1.53446 -7.543,-0.87148 -3.27989,0.79557 -5.76087,2.23342 -8.75152,5.01683 l -3.80108,-15.67059 -3.94801,0.95763 c -3.42876,2.56812 -7.30853,4.60251 -10.05651,5.20475 l 1.19336,4.91983 1.24424,-0.17317 c 1.06203,-0.12899 2.51614,0.0328 3.05917,0.41558 0.75472,0.46006 1.1432,1.2662 1.71778,3.63502 l 5.20069,21.44077 c 0.82504,3.40137 0.59139,4.2941 -1.55281,5.26439 l -2.02273,0.94082 1.19336,4.91983 18.10014,-4.39038 -1.19336,-4.91984 -0.86326,-0.11216 c -2.80149,-0.41378 -2.96716,-0.56653 -3.82167,-4.08938 L 428.73,654.78205 Z"
       style="font-style:normal;font-variant:normal;font-weight:bold;font-stretch:normal;font-size:62.5px;line-height:100%;font-family:'URW Bookman L';-inkscape-font-specification:'URW Bookman L Bold';fill:#ffffff"
       id="path4183" />
    <path
       d="m 490.83858,641.36844 c -1.64591,-4.12097 -3.00266,-6.33841 -4.89364,-7.87137 -3.86318,-3.10079 -9.53821,-3.66081 -15.11022,-1.43535 -8.93843,3.57002 -12.78452,12.30732 -9.28406,21.07163 3.52366,8.82235 12.69043,12.56421 21.86103,8.90147 4.41118,-1.76183 7.79015,-4.92851 9.23126,-8.73452 0.63915,-1.60129 0.96474,-2.80814 1.46533,-5.7674 l -5.82597,-0.43244 c -0.91908,4.27052 -2.67288,6.78811 -5.63301,7.97039 -4.52726,1.80819 -8.40247,-0.48019 -10.61625,-6.19147 l 18.80553,-7.51094 z m -20.24229,2.90263 c -1.10088,-3.26184 -0.29876,-5.80313 2.31312,-6.84632 2.61189,-1.04319 4.29423,-0.0326 5.87077,3.57767 l -8.18389,3.26865 z m -4.64719,-13.15195 8.44046,-5.65935 c 2.76317,-1.84392 3.73925,-4.11818 2.85833,-6.32377 -0.92727,-2.32167 -3.54961,-3.49523 -5.7552,-2.61432 -1.45105,0.57955 -2.75167,2.04123 -3.92505,4.327 l -3.91529,7.89003 2.29675,2.38041 z"
       style="font-style:normal;font-variant:normal;font-weight:bold;font-stretch:normal;font-size:62.5px;line-height:100%;font-family:'URW Bookman L';-inkscape-font-specification:'URW Bookman L Bold';fill:#ffffff"
       id="path4185" />
    <path
       d="m 512.31046,596.26843 -2.87927,1.63781 c -2.57971,3.0493 -5.96584,6.1978 -8.55852,7.96021 l 2.50307,4.4004 0.82237,-0.32398 c 2.93261,-1.16482 3.82327,-0.73671 5.70831,2.57717 l 1.08157,1.90141 c -2.43422,0.0185 -4.9706,0.74221 -7.14364,1.9783 -7.27967,4.14089 -9.32149,13.5713 -4.65526,21.77451 2.65759,4.67203 6.96936,7.82787 11.73565,8.49616 2.99145,0.45549 5.56621,-0.0744 8.55414,-1.77398 3.1509,-1.79232 5.02338,-3.93601 6.04457,-6.81782 l 1.17428,2.06439 12.16901,-6.92209 -2.50308,-4.4004 -2.00907,0.63949 c -2.3116,0.73968 -2.94658,0.38183 -4.7389,-2.76907 l -17.30523,-30.42251 z m 9.30788,36.84114 c -0.39171,2.09232 -1.85301,4.07401 -3.59144,5.06288 -2.9336,1.66872 -6.88301,-0.47088 -9.5406,-5.14291 -2.99751,-5.26961 -2.77131,-9.92823 0.59689,-11.84417 1.62978,-0.92706 3.4056,-1.21816 5.24224,-0.89672 l 7.29291,12.82092 z"
       style="font-style:normal;font-variant:normal;font-weight:bold;font-stretch:normal;font-size:62.5px;line-height:100%;font-family:'URW Bookman L';-inkscape-font-specification:'URW Bookman L Bold';fill:#ffffff"
       id="path4187" />
    <path
       d="m 537.74698,595.11164 -3.10733,2.3152 -6.73552,7.27876 3.02469,4.05958 0.97681,-0.57192 c 2.39191,-1.39245 3.54068,-1.00132 5.81853,2.05589 l 5.37723,7.21702 c 2.12849,2.85674 2.2012,3.58197 0.63279,5.45202 l -1.19204,1.43375 3.02469,4.05957 15.43641,-11.5013 -3.02469,-4.05957 -1.71482,0.73209 c -2.24057,0.96792 -2.9147,0.69079 -5.04319,-2.16595 l -7.24432,-9.72293 c 0.25355,-1.1242 0.60537,-1.69809 1.40726,-2.29556 0.60142,-0.44811 0.60142,-0.44811 2.31426,-0.5552 1.35023,-0.0707 2.20125,-0.39304 3.1535,-1.10254 2.25532,-1.68038 2.7644,-4.55379 1.12136,-6.75899 -1.94178,-2.60615 -5.39007,-3.15454 -7.9461,-1.25011 -2.05484,1.53102 -2.89704,3.01587 -4.44977,7.83599 l -1.82975,-2.4558 z"
       style="font-style:normal;font-variant:normal;font-weight:bold;font-stretch:normal;font-size:62.5px;line-height:100%;font-family:'URW Bookman L';-inkscape-font-specification:'URW Bookman L Bold';fill:#ffffff"
       id="path4189" />
    <path
       d="m 591.28207,580.91778 c -0.005,0.17671 -0.0103,0.35341 -0.0609,0.573 -0.0206,0.7068 -0.11925,1.05763 -0.34656,1.27207 -0.31824,0.30022 -0.89638,0.41601 -1.24464,0.22901 -0.4366,-0.18957 -0.4366,-0.18957 -2.11182,-1.87427 l -8.44896,-8.95615 c -2.27307,-2.40953 -4.14558,-3.39256 -6.48816,-3.41661 -3.04939,-0.0446 -6.95316,1.9196 -10.49925,5.26487 -5.86469,5.53257 -7.60521,12.15801 -4.17416,15.79502 1.8013,1.90944 4.67142,2.03729 6.58085,0.23598 1.09111,-1.02931 1.79879,-2.55614 1.70617,-3.92944 -0.06,-0.97443 -0.47861,-1.78247 -1.50793,-2.87357 -0.60043,-0.63648 -0.76426,-1.08338 -0.70592,-1.56802 0.0738,-1.01475 0.77374,-2.27653 1.72846,-3.17718 1.9549,-1.84419 3.63614,-1.88362 5.18011,-0.24697 l 2.18729,2.3186 c -2.286,2.58616 -4.08222,5.05396 -5.47957,7.48916 -3.25963,5.6527 -3.25969,10.20663 -2e-4,13.66179 3.51683,3.72795 8.78529,3.48355 13.10425,-0.59082 2.54591,-2.40173 4.22634,-5.44767 5.04128,-9.13781 2.42063,0.38003 5.32422,-0.64068 7.4155,-2.61354 2.04582,-1.92996 3.08462,-4.19876 3.58647,-7.76539 l -5.4623,-0.68973 z m -10.48556,7.82963 c -0.15272,2.2062 -0.81752,3.77849 -2.09047,4.97936 -1.27296,1.20087 -2.99451,1.10649 -4.28116,-0.2574 -1.8013,-1.90943 -1.18623,-4.80956 2.08281,-9.26823 l 4.28882,4.54627 z"
       style="font-style:normal;font-variant:normal;font-weight:bold;font-stretch:normal;font-size:62.5px;line-height:100%;font-family:'URW Bookman L';-inkscape-font-specification:'URW Bookman L Bold';fill:#ffffff"
       id="path4191" />
    <path
       d="m 577.01585,538.91743 -2.69564,3.12236 c -1.25494,4.03589 -2.5381,6.47859 -4.99073,9.89332 l 3.83199,3.30828 0.78895,-0.72255 c 0.87063,-0.81718 2.02512,-1.3893 2.73033,-1.44102 0.88152,-0.0647 1.66637,0.36522 3.5114,1.95809 l 16.69992,14.41758 c 2.69659,2.32806 2.97192,3.06118 1.79836,5.18565 l -0.97582,1.79977 3.83199,3.30829 12.78386,-14.80758 -3.83199,-3.30828 -1.59729,1.18066 c -1.97781,1.43014 -2.69596,1.30556 -5.39254,-1.02249 l -26.49279,-22.87208 z"
       style="font-style:normal;font-variant:normal;font-weight:bold;font-stretch:normal;font-size:62.5px;line-height:100%;font-family:'URW Bookman L';-inkscape-font-specification:'URW Bookman L Bold';fill:#ffffff"
       id="path4193" />
    <path
       d="m 624.4396,524.03543 c -3.63811,-2.54078 -5.98949,-3.6493 -8.41161,-3.89243 -4.93127,-0.47081 -9.98202,2.17672 -13.41744,7.09585 -5.51098,7.89112 -3.92882,17.30545 3.80857,22.70907 7.78863,5.43941 17.5047,3.53435 23.15883,-4.56173 2.7197,-3.89431 3.8054,-8.39616 2.9204,-12.36847 -0.3449,-1.68929 -0.73533,-2.87675 -1.94157,-5.62499 l -5.10687,2.83704 c 1.57634,4.07396 1.49264,7.14106 -0.33243,9.75435 -2.79127,3.9968 -7.28658,4.21162 -12.27241,0.65339 l 11.59453,-16.60208 z m -15.32537,13.53915 c -2.7109,-2.12193 -3.43564,-4.68637 -1.82529,-6.99221 1.61035,-2.30585 3.5713,-2.38479 6.87106,-0.23278 l -5.04577,7.22499 z"
       style="font-style:normal;font-variant:normal;font-weight:bold;font-stretch:normal;font-size:62.5px;line-height:100%;font-family:'URW Bookman L';-inkscape-font-specification:'URW Bookman L Bold';fill:#ffffff"
       id="path4195" />
    <path
       d="m 634.16933,498.34133 -8.24814,14.93644 4.48891,5.83447 8.30857,-15.04586 -4.54934,-5.72505 z"
       style="font-style:normal;font-variant:normal;font-weight:bold;font-stretch:normal;font-size:62.5px;line-height:100%;font-family:'URW Bookman L';-inkscape-font-specification:'URW Bookman L Bold';fill:#ffffff"
       id="path4197" />
    <path
       d="m 653.99498,474.80388 -23.36101,-0.72193 c -1.00971,-0.003 -1.57816,-0.0969 -2.04192,-0.28382 -1.15939,-0.46724 -1.19226,-1.22172 -0.23094,-4.94476 l 0.23449,-0.91626 -4.75351,-1.91568 -8.59717,21.33281 4.75351,1.91567 0.44301,-0.76485 c 2.04024,-3.55776 2.76098,-4.00853 6.89242,-3.8934 l 34.65389,0.62347 3.17722,-7.88387 -24.58065,-22.77648 c -3.40374,-3.25848 -4.03793,-4.86175 -3.2289,-8.0397 l 0.16441,-0.74236 -4.75351,-1.91567 -6.61141,16.40539 4.75351,1.91568 0.51309,-0.93876 c 0.80468,-1.4951 0.9561,-1.70361 1.36363,-2.21322 0.53558,-0.66016 1.41811,-0.84357 2.28765,-0.49315 0.46376,0.1869 0.93876,0.51309 1.59892,1.04868 l 17.32327,15.20221 z"
       style="font-style:normal;font-variant:normal;font-weight:bold;font-stretch:normal;font-size:62.5px;line-height:100%;font-family:'URW Bookman L';-inkscape-font-specification:'URW Bookman L Bold';fill:#ffffff"
       id="path4199" />
    <path
       d="m 647.19755,427.78675 c -2.32848,9.85362 2.29457,18.01043 11.47912,20.18081 9.97526,2.35724 17.77817,-2.67056 20.22164,-13.01077 2.41473,-10.21857 -2.16187,-18.30018 -11.65054,-20.54243 -9.79279,-2.31412 -17.578,2.91053 -20.05022,13.37239 z m 6.29037,1.10114 c 0.90553,-3.83197 4.69646,-4.927 11.38719,-3.34593 6.20413,1.46609 9.01435,4.24947 8.13757,7.95978 -0.90552,3.83196 -4.66438,5.06302 -10.99016,3.56819 -6.56908,-1.55233 -9.45449,-4.28926 -8.5346,-8.18204 z"
       style="font-style:normal;font-variant:normal;font-weight:bold;font-stretch:normal;font-size:62.5px;line-height:100%;font-family:'URW Bookman L';-inkscape-font-specification:'URW Bookman L Bold';fill:#ffffff"
       id="path4201" />
    <path
       d="m 640.25437,389.98584 -0.51152,4.09316 c 1.19395,4.05435 1.48086,6.79861 1.3337,11.00029 l 5.02343,0.62778 0.25579,-1.0388 c 0.27129,-1.16284 0.91468,-2.27917 1.47283,-2.71331 0.69768,-0.54267 1.58917,-0.62022 4.00786,-0.31796 l 21.89221,2.73586 c 3.53501,0.44177 4.1707,0.89913 4.37233,3.3178 l 0.18611,2.03881 5.02343,0.62778 2.42584,-19.41151 -5.02342,-0.62778 -0.67439,1.8683 c -0.85267,2.28691 -1.51934,2.58152 -5.05435,2.13975 l -34.72985,-4.34017 z"
       style="font-style:normal;font-variant:normal;font-weight:bold;font-stretch:normal;font-size:62.5px;line-height:100%;font-family:'URW Bookman L';-inkscape-font-specification:'URW Bookman L Bold';fill:#ffffff"
       id="path4203" />
    <path
       d="m 675.62682,355.59755 c 4.01141,2.33987 6.00801,5.32256 5.92731,8.94666 -0.10017,4.49888 -4.4145,7.34105 -10.91289,7.19636 -6.31094,-0.14052 -9.88635,-2.40817 -9.80148,-6.21973 0.0417,-1.87453 1.26651,-3.53518 2.57868,-3.50596 l 1.81066,0.10283 c 2.18696,0.0487 4.3046,-2.40478 4.36442,-5.09161 0.0654,-2.93677 -2.07148,-5.23491 -5.00825,-5.3003 -5.12373,-0.11408 -9.32157,5.91897 -9.49409,13.66705 -0.23095,10.37243 6.0547,17.26405 15.86477,17.48248 9.62262,0.21426 16.39762,-6.44908 16.61744,-16.32163 0.16556,-7.43566 -3.26667,-13.32602 -9.20953,-15.95896 l -2.73704,5.00281 z"
       style="font-style:normal;font-variant:normal;font-weight:bold;font-stretch:normal;font-size:62.5px;line-height:100%;font-family:'URW Bookman L';-inkscape-font-specification:'URW Bookman L Bold';fill:#ffffff"
       id="path4205" />
    <path
       d="m 676.80313,310.63379 c 0.13754,0.11105 0.27507,0.22211 0.41923,0.39531 0.55015,0.44423 0.76969,0.73511 0.80279,1.04586 0.0463,0.43503 -0.21144,0.96532 -0.57109,1.12934 -0.41518,0.23278 -0.41518,0.23278 -2.7702,0.54649 l -12.24323,1.30415 c -3.29387,0.35086 -5.2098,1.24634 -6.64692,3.09647 -1.88134,2.40027 -2.68077,6.69662 -2.1644,11.54419 0.85398,8.01715 5.07425,13.41299 10.04613,12.88338 2.61023,-0.27804 4.44929,-2.48525 4.17124,-5.09548 -0.15888,-1.49156 -0.94586,-2.97907 -2.09506,-3.73661 -0.81199,-0.54204 -1.70854,-0.69796 -3.20011,-0.53908 -0.87007,0.0927 -1.32497,-0.0474 -1.67544,-0.38721 -0.76307,-0.67296 -1.34375,-1.99389 -1.48277,-3.299 -0.28466,-2.67238 0.70161,-4.03451 2.93895,-4.27284 l 3.16957,-0.33762 c 0.67485,3.38507 1.55194,6.30861 2.64453,8.89493 2.52646,6.01624 6.15133,8.7728 10.87461,8.26968 5.09617,-0.54285 8.09065,-4.88445 7.46174,-10.78855 -0.37072,-3.48031 -1.7781,-6.66163 -4.22215,-9.54397 1.76772,-1.69679 2.71279,-4.62586 2.40826,-7.48469 -0.2979,-2.79668 -1.47507,-4.99687 -4.01031,-7.55523 l -3.85537,3.93048 z m -0.11459,13.08575 c 1.66368,1.45697 2.51281,2.93786 2.69817,4.67802 0.18536,1.74015 -0.93182,3.05338 -2.79628,3.25198 -2.61023,0.27804 -4.54642,-1.96701 -6.11673,-7.268 l 6.21484,-0.662 z"
       style="font-style:normal;font-variant:normal;font-weight:bold;font-stretch:normal;font-size:62.5px;line-height:100%;font-family:'URW Bookman L';-inkscape-font-specification:'URW Bookman L Bold';fill:#ffffff"
       id="path4207" />
    <path
       d="m 648.29605,293.55939 0.94937,3.75691 4.14601,9.00879 4.90821,-1.24032 -0.15443,-1.12133 c -0.37078,-2.74276 0.43031,-3.6543 4.12662,-4.58836 l 8.7257,-2.205 c 3.45393,-0.87281 4.15176,-0.66237 5.27899,1.50244 l 0.86823,1.65007 4.90821,-1.24031 -4.54781,-17.99677 -4.90821,1.24031 -0.0274,1.16727 c -0.0847,2.47106 -0.59875,2.98775 -4.05268,3.86057 l -11.81606,2.98593 c -2.24857,-2.01037 -3.95244,-4.41625 -4.41181,-6.2341 -0.45938,-1.81786 0.64403,-3.06366 3.18903,-3.70679 l 10.60416,-2.67968 c 3.45392,-0.87281 4.15175,-0.66236 5.40017,1.47182 l 0.5786,1.01415 4.90821,-1.24031 -4.56312,-18.05737 -4.90821,1.24031 0.0352,1.92504 c 0.0365,2.44043 -0.47756,2.95713 -3.93149,3.82994 l -11.39189,2.87875 c -3.27214,0.82687 -4.831,1.80098 -6.2201,3.95702 -1.54027,2.32316 -1.85267,4.65837 -1.02579,7.93051 0.96468,3.8175 2.76108,6.84464 5.93782,10.23208 l -2.60559,0.65843 z"
       style="font-style:normal;font-variant:normal;font-weight:bold;font-stretch:normal;font-size:62.5px;line-height:100%;font-family:'URW Bookman L';-inkscape-font-specification:'URW Bookman L Bold';fill:#ffffff"
       id="path4209" />
  </g>
</svg>
